<?xml version="1.0" standalone="no"?><!DOCTYPE svg PUBLIC "-//W3C//DTD SVG 1.1//EN" "http://www.w3.org/Graphics/SVG/1.1/DTD/svg11.dtd"><svg class="icon" width="95px" height="95.00px" viewBox="0 0 1024 1024" version="1.1" xmlns="http://www.w3.org/2000/svg"><path fill="#3dcca6" d="M646.956 781.138c-11.022-26.542-47.398-71.919-108.13-134.879-16.209-16.834-15.166-29.751-9.375-68.128l0.667-4.335c3.936-26.291 10.541-41.835 100.067-55.876 45.481-7.124 57.44 10.834 74.022 35.709 1.835 2.752 3.668 5.459 5.542 8.166 15.75 22.753 27.418 27.959 45.045 35.876 7.897 3.542 17.75 8.002 30.957 15.417 31.295 17.669 31.295 37.627 31.295 81.379v4.958c0 69.922-26.043 107.758-36.21 119.882-38.793 33.045-83.817 59.086-133.151 76.169 24.459-45.126 5.749-98.71-0.73-114.338zM511.993 105.529c63.836 0 124.297 14.375 178.3 40.086-29.67 18.543-72.295 47.545-89.838 71.294-6.5 8.793-12.083 17.125-17.251 24.793-17.125 25.502-25.375 36.877-41.169 38.835-7.831 0.957-18.333 0.29-29.458-0.417-29.834-1.916-70.647-4.501-83.712 30.543-8.292 22.208-9.75 82.502 17.085 113.796 4.293 5.001 5.124 14.25 2.208 24.627-3.835 13.626-11.583 21.918-14 23.626-4.627-2.625-13.856-13.21-20.106-20.418-15.065-17.293-33.856-38.835-58.148-45.503-8.833-2.416-18.543-4.415-27.959-6.374-26.356-5.459-56.21-11.668-63.147-26.291-5.063-10.71-5.042-25.46-5.022-41.043 0-19.751 0-42.086-9.792-63.795-8.499-18.875-23.479-29.085-39.209-34.084 75.252-79.714 182.403-129.675 301.22-129.675zM64.371 511.877c0 243.97 200.404 441.727 447.622 441.727 247.219 0 447.621-197.756 447.621-441.727 0-243.967-200.402-441.725-447.621-441.725-247.219 0-447.622 197.758-447.622 441.725z" /></svg>